<?xml version="1.0" encoding="UTF-8" standalone="no"?>
<!-- Created with Inkscape (http://www.inkscape.org/) -->

<svg
   version="1.1"
   id="svg1"
   width="739.5"
   height="848.70099"
   viewBox="0 0 739.50003 848.70102"
   sodipodi:docname="logo.svg"
   inkscape:version="1.3.2 (091e20ef0f, 2023-11-25, custom)"
   xmlns:inkscape="http://www.inkscape.org/namespaces/inkscape"
   xmlns:sodipodi="http://sodipodi.sourceforge.net/DTD/sodipodi-0.dtd"
   xmlns="http://www.w3.org/2000/svg"
   xmlns:svg="http://www.w3.org/2000/svg">
  <defs
     id="defs1" />
  <sodipodi:namedview
     id="namedview1"
     pagecolor="#ffffff"
     bordercolor="#000000"
     borderopacity="0.25"
     inkscape:showpageshadow="2"
     inkscape:pageopacity="0.0"
     inkscape:pagecheckerboard="0"
     inkscape:deskcolor="#d1d1d1"
     inkscape:zoom="0.94982953"
     inkscape:cx="-55.273076"
     inkscape:cy="131.60256"
     inkscape:window-width="3860"
     inkscape:window-height="2043"
     inkscape:window-x="1260"
     inkscape:window-y="259"
     inkscape:window-maximized="0"
     inkscape:current-layer="g1" />
  <g
     inkscape:groupmode="layer"
     inkscape:label="Image"
     id="g1">
    <path
       style="fill:#000000"
       d="m 185.07276,847.91347 c -23.64535,-0.7623 -33.87206,-1.6657 -44.66668,-3.9459 C 92.254952,833.79637 56.599312,812.31807 31.811736,778.55247 16.684932,757.94677 6.225199,728.43897 1.6385879,693.4315 -0.1159225,680.04016 -0.0178725,192.24251 1.744118,168.42021 4.1838886,135.43418 9.54395,113.52234 20.599463,91.339839 39.925048,52.563719 79.773089,20.075809 122.02858,8.6451586 153.02583,0.26000819 137.55647,0.80346819 361.73946,0.22375819 c 220.81373,-0.57099 221.38334,-0.55629 249.33339,6.43580041 18.18309,4.5487504 47.23339,18.3902204 61.9641,29.5237704 33.70428,25.47387 53.39189,58.33828 61.99509,103.488321 4.0912,21.47063 4.8035,34.87173 2.1285,40.04458 -4.1293,7.9853 -11.6532,14.7977 -23.91411,21.65283 -6.6955,3.74343 -17.8736,10.24004 -24.8402,14.43689 -6.96671,4.19686 -24.66671,14.72699 -39.33337,23.40029 -30.53755,18.05874 -53.41806,31.89184 -121.33337,73.35575 -29.17777,17.81372 -108.23049,65.19597 -136.66669,81.91464 -12.83334,7.54519 -38.93334,23.0788 -58.00001,34.51915 -19.06667,11.44034 -40.66668,24.35345 -48.00001,28.69579 -7.33333,4.34234 -19.63334,11.92905 -27.33334,16.85935 -7.7,4.93029 -22.1,13.33828 -32.00001,18.68442 -9.9,5.34613 -25.5,13.92647 -34.66668,19.06741 -9.16666,5.14095 -21.46666,12.03861 -27.33333,15.32814 -5.86666,3.28953 -18.13144,10.74191 -27.25504,16.56083 -9.1236,5.81892 -19.92361,12.27053 -24.00001,14.33691 -8.98935,4.55683 -42.067664,23.98189 -56.744968,33.3232 -5.866671,3.73381 -15.452434,9.61893 -21.301695,13.07803 -15.181024,8.97767 -20.394576,18.21947 -14.364974,25.46403 4.122461,4.95314 7.942422,4.28141 19.010735,-3.34298 9.506632,-6.54863 30.950238,-19.24775 56.655942,-33.55222 5.86666,-3.26463 12.16666,-6.95658 14,-8.20434 1.83333,-1.24775 6.93333,-4.24107 11.33334,-6.65181 7.41019,-4.06001 37.84249,-21.83718 53.33334,-31.15492 3.66667,-2.2055 16.56666,-9.82607 28.66667,-16.93461 12.1,-7.10853 25.53142,-15.40404 29.8476,-18.43446 8.2085,-5.76325 20.11876,-10.8994 25.27472,-10.8994 1.66225,0 5.98974,1.88876 9.61665,4.19723 10.7936,6.86998 39.97725,23.46272 51.12369,29.06704 14.14258,7.11075 18.80403,11.20005 18.80403,16.49602 0,6.81362 -13.184,18.08438 -36.82701,31.48271 -10.91181,6.18365 -28.83966,16.86639 -39.83967,23.73942 -11,6.87303 -29.60001,17.91505 -41.33334,24.53782 -11.73333,6.62277 -28.23334,15.99653 -36.66667,20.83059 -8.43334,4.83405 -19.23334,10.87624 -24,13.42707 -4.76668,2.55083 -10.16668,5.66584 -12.00001,6.92225 -3.06595,2.10113 -24.86652,15.04428 -49.33334,29.28953 -14.516051,8.45165 -33.314246,21.10314 -38.447097,25.87553 -8.620582,8.01517 -10.602983,16.63571 -5.219581,22.69741 3.357521,3.7806 11.666673,5.962 11.666673,3.0628 0,-2.0488 34.308075,-27.09514 35.492305,-25.91091 0.21428,0.21428 -0.55273,3.06618 -1.70447,6.33754 -1.73938,4.94047 -1.94769,9.87262 -1.22984,29.11867 0.47533,12.7439 1.46429,24.2919 2.1977,25.6623 1.82617,3.4122 11.19407,8.0092 14.16718,6.9521 6.40182,-2.2763 7.08311,-4.135 6.96145,-18.9918 -0.0636,-7.7697 -0.52874,-21.753 -1.03357,-31.0742 -0.86731,-16.01368 -1.117,-17.15528 -4.53191,-20.71966 l -3.61401,-3.77222 12.98092,-8.08178 c 7.13951,-4.44497 17.78092,-10.6785 23.64759,-13.85228 5.86666,-3.17378 13.26373,-7.52431 16.43791,-9.66785 l 5.77123,-3.89734 -2.4379,4.46934 c -2.2127,4.05648 -2.47455,8.96397 -2.8346,53.1261 -0.21818,26.76119 -0.0684,49.96499 0.33294,51.56389 1.1913,4.7465 7.33847,11.1127 10.73043,11.1127 1.82063,0 4.51842,-1.6902 6.54814,-4.1023 l 3.45186,-4.1023 0.0204,-49.5644 c 0.0112,-27.2604 0.46123,-50.22782 1,-51.0387 0.53877,-0.81089 3.07958,-1.86264 5.64625,-2.33722 5.17558,-0.95696 14.07825,-5.88798 12.84927,-7.11696 -0.43165,-0.43165 -1.65788,-0.0602 -2.72495,0.82535 -1.06707,0.88559 -5.26515,1.95334 -9.32907,2.37277 -7.05948,0.7286 -7.44854,0.60583 -8.72576,-2.7535 -0.73525,-1.93385 -1.68708,-3.5161 -2.11518,-3.5161 -0.42809,0 -0.32777,0.75 0.22295,1.66667 0.68037,1.13247 0.27823,1.08014 -1.25465,-0.16326 -5.10294,-4.13929 -2.66269,-6.00751 31.87903,-24.40614 l 16.13496,-8.59428 0.8606,20.74851 c 0.47333,11.41167 0.86483,43.5485 0.87002,71.41516 0.009,47.813 0.15532,50.9059 2.59977,54.9149 4.92873,8.0833 9.21143,8.4286 15.89591,1.2815 2.8657,-3.0639 3.07232,-4.1064 2.19913,-11.0953 -0.53006,-4.2424 -0.52432,-36.2379 0.0128,-71.10107 l 0.97651,-63.38753 6.07792,-1.97291 c 7.79877,-2.53151 8.43524,-4.64459 1.45412,-4.82764 -5.1824,-0.13589 -11.80726,-3.58372 -12.8402,-6.68254 -0.52673,-1.58019 8.00758,-6.23264 26.70228,-14.55664 7.1933,-3.2029 15.5933,-7.52063 18.66666,-9.59497 l 5.58794,-3.77153 -0.38521,88.06353 c -0.21187,48.4349 -0.0221,90.0806 0.4217,92.5458 0.9479,5.2656 6.03453,10.8511 9.88187,10.8511 1.48843,0 4.52649,-1.65 6.75123,-3.6667 l 4.04499,-3.6667 0.30938,-91.64134 0.30938,-91.64138 3,-2.10089 c 3.42,-2.39502 3.92855,-5.67705 1.05075,-6.78137 -1.07208,-0.41139 -2.30027,-1.854 -2.72931,-3.20578 -0.42904,-1.35179 -1.80188,-2.66619 -3.05076,-2.92089 -1.56219,-0.31861 0.0174,-1.93532 5.06265,-5.18149 10.68389,-6.87419 44.26131,-23.86015 47.16615,-23.86015 4.19256,0 45.67159,22.72763 64.08452,35.11387 4.35452,2.92925 15.45452,9.49565 24.66667,14.59199 9.21215,5.09634 19.74936,11.21954 23.41602,13.60711 15.60262,10.15971 39.08246,24.57911 44.29771,27.20402 5.65236,2.84491 35.48102,21.2991 50.2907,31.1135 4.35694,2.88735 10.79865,6.70759 14.3149,8.48941 3.51626,1.78182 13.15148,7.52584 21.41163,12.76449 8.26014,5.23865 21.46807,13.37467 29.35097,18.08006 9.57998,5.71838 16.17051,10.73496 19.87539,15.12874 4.55933,5.4071 6.31696,6.5735 9.90555,6.5735 5.50807,0 8.07423,-2.5525 9.1868,-9.1377 1.19569,-7.07709 -1.8773,-13.90726 -8.21097,-18.25019 -2.79912,-1.91933 -17.91197,-11.25841 -33.58414,-20.7535 -15.67215,-9.4951 -31.57216,-19.28434 -35.33334,-21.75387 -3.76118,-2.46953 -19.73851,-12.25276 -35.50518,-21.74051 -15.76667,-9.48775 -35.26668,-21.33251 -43.33334,-26.32168 -14.36752,-8.8862 -38.76935,-23.6024 -54.66668,-32.96826 -8.47516,-4.99312 -30.96463,-18.72901 -60.66668,-37.0534 -9.9,-6.1077 -21.6,-13.22396 -26,-15.81391 -4.40001,-2.58994 -10.70001,-6.61467 -14.00001,-8.94384 -3.3,-2.32917 -12,-7.69921 -19.33333,-11.93342 -44.24984,-25.54952 -54.55405,-32.71011 -58.75186,-40.82778 -1.42301,-2.75181 -1.61621,-4.56856 -0.67319,-6.3306 1.23606,-2.30961 1.96601,-2.35933 11.16151,-0.76028 5.41144,0.94102 24.1845,2.703 41.71792,3.91551 32.37367,2.23878 42.59255,3.53433 47.16052,5.97904 3.51985,1.88376 3.90016,1.73594 3.12824,-1.21591 -1.03223,-3.94723 6.01924,-15.60736 13.63239,-22.54219 7.86711,-7.16616 73.13306,-51.30377 89.95784,-60.83607 6.23333,-3.53158 19.13333,-11.3305 28.66666,-17.33094 34.02676,-21.41702 55.18424,-34.51229 91.62333,-56.70963 40.17527,-24.47329 51.23282,-31.67617 54.5115,-35.50876 2.16902,-2.53545 15.36281,-25.52294 24.39041,-42.49545 4.9452,-9.29715 4.9488,-9.31563 0.9272,-4.766 -2.2205,2.51203 -4.9725,6.53803 -6.1154,8.94667 -1.143,2.40864 -4.0652,6.98245 -6.4937,10.16401 -2.42851,3.18156 -6.68344,10.10047 -9.45531,15.37535 -6.13778,11.68022 -10.89188,16.11383 -28.08828,26.19472 -7.31485,4.28812 -17.36907,10.26153 -22.34271,13.27425 -4.97365,3.01272 -10.67365,6.37767 -12.66667,7.47767 -1.99302,1.1 -6.62369,3.86974 -10.29035,6.15499 -10.86098,6.76909 -23.39853,13.84501 -24.53145,13.84501 -0.58039,0 -2.14457,1.20367 -3.47595,2.67484 -1.33138,1.47116 -2.67818,2.41736 -2.99289,2.10266 -0.3147,-0.3147 -2.40736,1.18162 -4.65037,3.32516 -2.243,2.14353 -4.63206,3.89733 -5.30901,3.89733 -0.67695,0 -2.13633,0.90552 -3.24307,2.01226 -1.10674,1.10674 -2.56388,1.67133 -3.2381,1.25464 -0.67421,-0.41668 -1.23502,0.0278 -1.24625,0.98775 -0.0148,1.26825 -0.37373,1.19864 -1.31292,-0.25465 -1.1246,-1.74019 -1.29515,-1.71809 -1.31292,0.17008 -0.0318,3.37481 -3.19004,5.43394 -5.31441,3.46487 -1.24503,-1.15402 -1.50384,-1.17179 -0.87986,-0.0604 1.27931,2.27859 -1.88927,3.78207 -3.36414,1.59628 -0.98945,-1.46636 -1.16131,-1.39406 -0.85093,0.35796 0.40246,2.27181 -10.32537,10.58201 -15.97555,12.37531 -1.63288,0.51825 -2.96886,1.56604 -2.96886,2.32842 0,0.76297 -1.03072,0.99061 -2.2927,0.50634 -1.26098,-0.48388 -1.88132,-0.46842 -1.37855,0.0344 0.90937,0.90937 -3.17931,4.61768 -6.99542,6.34463 -1.1,0.4978 -3.99045,2.11034 -6.42323,3.58343 -2.43277,1.47308 -5.07548,2.27522 -5.87268,1.78252 -0.84245,-0.52067 -1.06835,-0.27918 -0.53942,0.57664 0.99547,1.6107 -3.62524,4.70124 -4.98937,3.33711 -0.46309,-0.46309 -0.84198,-0.14198 -0.84198,0.71357 0,0.85556 -0.63541,1.55556 -1.41202,1.55556 -0.77661,0 -0.98391,-0.69271 -0.46065,-1.53935 0.59417,-0.96138 0.36524,-1.1771 -0.60973,-0.57453 -0.8586,0.53064 -1.26766,1.4396 -0.90901,2.0199 0.35864,0.58029 -1.69864,2.11511 -4.57174,3.4107 -2.8731,1.29558 -6.54396,3.76084 -8.15747,5.47835 -1.61352,1.71751 -3.53747,2.74957 -4.27546,2.29347 -0.73799,-0.4561 -2.15077,0.27707 -3.13952,1.62926 -0.98875,1.3522 -1.79773,2.01659 -1.79773,1.47643 0,-0.54016 -1.40671,0.39516 -3.12602,2.0785 -1.71931,1.68333 -6.01262,5.1606 -9.54068,7.72727 -3.52805,2.56666 -10.00973,7.28273 -14.40372,10.48014 -4.394,3.19741 -8.6507,5.91273 -9.45934,6.03405 -2.33496,0.35031 -15.48654,9.43435 -23.15204,15.99156 -17.69403,15.13579 -21.29208,16.22059 -52.98489,15.97473 -13.20001,-0.1024 -31.20001,-0.70239 -40.00001,-1.33333 l -16,-1.14716 16.9439,-9.66043 c 9.31915,-5.31324 21.91914,-12.85232 28,-16.75351 6.08087,-3.90119 20.05611,-12.40999 31.05611,-18.90844 51.04372,-30.15499 72.23111,-42.81801 91.91224,-54.93298 11.68506,-7.19288 25.18506,-15.19159 30.00001,-17.77491 4.81495,-2.58333 14.27525,-8.42917 21.0229,-12.99077 6.74765,-4.5616 19.34766,-12.40651 28.00001,-17.43313 8.65235,-5.02663 28.93156,-17.23342 45.06489,-27.12621 16.13333,-9.89279 39.23334,-23.87778 51.33334,-31.07776 12.10001,-7.19997 32.5094,-19.8397 45.35418,-28.08827 15.4482,-9.92037 25.9967,-15.76558 31.1598,-17.26655 7.54491,-2.19335 7.92271,-2.18249 11.31251,0.32517 7.3103,5.408 7.5069,6.77858 7.5069,52.35447 v 42 l -3.9386,7.11029 c -5.0498,9.11623 -8.9419,12.30115 -24.69021,20.20402 -7.073,3.54942 -16.1251,8.39167 -20.1156,10.76055 -14.41021,8.55417 -31.6787,18.33737 -53.92231,30.54881 -46.53158,25.5452 -92.75902,52.48548 -111.41915,64.93248 -7.65282,5.10471 -17.72009,11.57026 -22.37173,14.36788 -8.91641,5.36257 -13.52922,11.1139 -13.53751,16.87878 -0.0102,7.13209 5.23721,11.87003 27.99503,25.27683 43.0291,25.34876 95.45378,56.42652 103.33336,61.25685 4.4,2.69727 16.7,10.21301 27.33333,16.70164 10.63334,6.48862 30.602,19.14246 44.37478,28.11963 13.7729,8.97717 27.8729,17.28447 31.3334,18.46067 6.84091,2.32516 10.44901,4.90542 13.99951,10.01156 1.8768,2.69914 2.2923,6.39415 2.2923,20.38588 0,33.98152 -5.3366,63.59863 -15.30051,84.91402 -3.318,7.0981 -6.0461,13.4677 -6.0624,14.1546 -0.016,0.6869 -1.2463,2.7489 -2.7332,4.5822 -1.487,1.8333 -4.2713,5.7333 -6.1874,8.6667 -17.4935,26.7808 -44.29526,48.133 -73.46604,58.5281 -12.21122,4.3516 -37.75502,10.7979 -50.91712,12.8496 -11.73174,1.8288 -348.95972,2.9406 -399.33341,1.3166 z m 332.96203,-48.1607 c 2.19964,-2.9523 2.38212,-7.3853 2.35461,-57.2003 -0.0164,-29.7 -0.31117,-59.99999 -0.65505,-67.33333 l -0.62523,-13.33333 -4.42256,-0.39819 c -5.39269,-0.48553 -11.24266,3.68474 -13.49765,9.62206 -1.14962,3.02691 -1.37048,20.38359 -0.83842,65.88763 l 0.72234,61.77816 4.44982,3.9738 c 4.0473,3.6143 4.70661,3.8033 7.28876,2.0888 1.56142,-1.0368 3.91194,-3.3251 5.22338,-5.0853 z m -134.21145,1.379 3.91613,-4.0875 0.27833,-90.91254 c 0.15308,-50.00192 0.30308,-91.62582 0.33333,-92.49755 0.0303,-0.87174 2.90501,-1.99847 6.38834,-2.50386 3.48333,-0.50539 7.83237,-1.68701 9.66452,-2.62582 3.3166,-1.69945 3.30785,-1.71104 -2,-2.64688 -15.71067,-2.76998 -14.54517,-2.04903 -15.87299,-9.81873 -0.90749,-5.31015 -0.7918,-7.32886 0.46452,-8.10531 3.40895,-2.10685 0.95039,-6.03511 -3.93906,-6.2938 -5.7008,-0.30162 -9.84594,2.234 -12.95592,7.92526 -2.1899,4.00752 -2.38821,11.56762 -2.73535,104.27912 -0.39325,105.02621 -0.3797,105.29481 5.52137,109.42811 4.11941,2.8853 6.58361,2.403 10.93678,-2.1405 z m 65.25846,-0.246 4.63649,-4.3333 0.34393,-72 0.34392,-71.99999 5.33335,0.31687 c 2.93333,0.17428 7.13333,-0.47274 9.33333,-1.43782 l 4,-1.7547 -5.76054,-0.92628 c -10.92382,-1.75651 -13.30865,-5.0112 -15.53268,-21.19807 -0.82223,-5.9843 -1.09477,-6.33333 -4.94535,-6.33333 -2.96,0 -5.49984,1.42467 -9.28137,5.2062 l -5.20621,5.20621 0.36307,82.90369 0.36307,82.90372 4.35437,3.8901 c 2.3949,2.1395 4.95371,3.8901 5.68625,3.8901 0.73253,0 3.4183,-1.95 5.96837,-4.3334 z m 134.25978,-0.7959 5.4988,-5.1292 -0.29537,-31.8708 c -0.21265,-22.94502 -0.8709,-34.42376 -2.35036,-40.98674 -1.94963,-8.64862 -1.91824,-10.86305 0.25317,-17.86023 0.74754,-2.40886 0.25032,-3.23222 -2.60818,-4.31902 -4.54344,-1.72741 -12.97668,3.25516 -16.26181,9.60789 -2.55642,4.94358 -2.5859,5.65654 -2.15657,52.154 l 0.31824,34.4667 4.53333,4.5333 c 2.49334,2.4934 5.21658,4.5334 6.05164,4.5334 0.83507,0 3.99276,-2.3082 7.01711,-5.1293 z M 131.90825,731.99536 c 3.0262,-1.3742 5.93064,-3.19183 6.45433,-4.03916 0.55876,-0.9041 -1.16363,-0.6229 -4.16884,0.68062 -2.81655,1.22168 -5.87099,2.25248 -6.78766,2.29067 -0.91666,0.0382 -1.66666,0.60484 -1.66666,1.25923 0,0.65439 -0.6,0.81898 -1.33334,0.36575 -0.73333,-0.45322 -1.33333,-0.18863 -1.33333,0.58798 0,2.03447 2.56597,1.70192 8.8355,-1.14509 z m -96.835523,-6.9336 c 0,-0.73333 -0.6,-0.96251 -1.333331,-0.50929 -0.73333,0.45323 -1.33333,1.42405 -1.33333,2.15738 0,0.73334 0.6,0.96251 1.33333,0.50929 0.733331,-0.45323 1.333331,-1.42405 1.333331,-2.15738 z m 2,-3.84262 c 0.45323,-0.73333 0.52405,-1.33333 0.15738,-1.33333 -0.36666,0 -1.03748,0.6 -1.49071,1.33333 -0.45322,0.73333 -0.52404,1.33333 -0.15738,1.33333 0.36667,0 1.03749,-0.6 1.49071,-1.33333 z m 9.928663,-18 c 2.734491,-5.86667 6.673632,-15.67726 8.753652,-21.80133 3.207461,-9.44351 4.506021,-11.59537 8.549772,-14.16796 12.568294,-7.99581 40.081776,-24.6496 45.434596,-27.50135 3.3,-1.75811 27,-15.72987 52.66668,-31.04838 25.66667,-15.3185 54.16667,-32.29664 63.33334,-37.7292 21.55048,-12.77172 29.12446,-18.36211 30.78123,-22.71974 1.08531,-2.85458 1.07368,-18.17124 -0.0304,-40.03203 -0.12801,-2.53462 -3.81786,-1.98897 -5.30193,0.78404 -0.72137,1.34789 -1.05021,5.07801 -0.73075,8.28916 0.31946,3.21115 0.0351,7.81499 -0.63194,10.23075 -0.73897,2.67633 -0.73226,4.09533 0.0172,3.63215 0.67647,-0.41808 1.22994,-0.17473 1.22994,0.54077 0,0.7155 -0.75,1.60523 -1.66667,1.97718 -1.29569,0.52574 -1.26393,0.95859 0.14269,1.94465 1.94705,1.36491 0.95711,6.93463 -1.23254,6.93463 -0.68391,0 -1.23429,1.05 -1.22306,2.33334 0.0175,1.99406 0.20835,2.04253 1.31291,0.33333 1.46084,-2.26047 1.73756,-1.27148 0.52696,1.88329 -0.44351,1.15577 -1.27577,1.8113 -1.84946,1.45674 -0.5737,-0.35457 -0.96083,0.34938 -0.86029,1.56432 0.21422,2.5887 -12.69741,11.44548 -36.58505,25.09565 -8.98327,5.13333 -21.18549,12.38841 -27.11603,16.12239 -5.93055,3.73399 -20.98281,12.81312 -33.44948,20.17585 -38.46518,22.71729 -50.27127,29.83592 -61.333339,36.98172 -14.155554,9.1441 -20.172876,11.81879 -24.597987,10.93377 -7.518892,-1.50378 -21.468536,-9.32101 -26.635027,-14.92599 -3.050121,-3.30899 -5.553881,-5.07549 -5.920762,-4.17734 -0.34964,0.85594 -0.68308,0.20626 -0.74098,-1.44374 -0.0579,-1.65 -0.68643,-3 -1.39675,-3 -0.71031,0 -0.91071,1.05 -0.44532,2.33334 0.53719,1.48133 -0.19217,1.11619 -1.997491,-1 -2.44754,-2.86902 -2.84983,-2.99271 -2.88801,-0.88798 -0.0517,2.85049 11.291633,15.14114 18.734474,20.29903 2.825111,1.95781 6.682802,5.58687 8.572643,8.06457 3.299291,4.32558 3.377551,4.83705 1.96606,12.84798 -1.6366,9.28857 -4.736971,18.34221 -9.705932,28.34306 -1.821801,3.66666 -3.710751,8.16666 -4.197681,10 -0.867591,3.26655 -0.840971,3.27991 1.3288,0.66666 1.21778,-1.46666 4.451451,-7.46666 7.185942,-13.33333 z m 488.00189,-12.59547 c 1.51386,-0.95773 1.15417,-1.41615 -1.66666,-2.12413 -1.97842,-0.49655 -3.59713,-1.69734 -3.59713,-2.66842 0,-1.99815 -4.63864,-3.86537 -6.5965,-2.65534 -0.70787,0.43749 -1.01324,1.67621 -0.6786,2.75273 0.33464,1.07651 0.8896,2.8573 1.23326,3.9573 0.70033,2.24172 8.1591,2.72851 11.30563,0.73786 z m 24.06955,-95.35761 c 0,-0.34087 -1.35,-1.27397 -3,-2.07356 -2.88083,-1.39605 -2.89719,-1.37143 -0.41182,0.61976 2.72035,2.17945 3.41182,2.47409 3.41182,1.4538 z M 30.152065,585.55248 c 5.430722,-9.0399 11.444323,-20.0294 21.396376,-39.10061 8.234512,-15.77986 10.359203,-17.68554 36.19097,-32.46059 8.066659,-4.61391 29.966659,-17.57429 48.666669,-28.80086 18.7,-11.22656 49.90001,-29.86838 69.33335,-41.42626 35.17661,-20.92111 63.01603,-37.59738 122.66669,-73.47935 17.23333,-10.36646 39.13334,-23.5226 48.66667,-29.23587 9.53335,-5.71326 27.53335,-16.75162 40.00001,-24.52966 24.56479,-15.32616 54.17475,-33.17234 84.66669,-51.02936 10.63334,-6.22721 23.83334,-14.1452 29.33333,-17.59553 5.50001,-3.45034 14.50001,-8.9708 20.00001,-12.26769 5.5,-3.2969 16.6,-10.08599 24.66668,-15.08688 8.06666,-5.00088 20.96666,-12.79548 28.66666,-17.32133 40.00207,-23.5121 64.37237,-39.57142 68.19328,-44.93739 3.66994,-5.15395 6.40414,-18.66077 6.28792,-31.06192 l -0.0875,-9.33334 -3.06947,15.33334 c -1.68821,8.43333 -3.69056,16.9271 -4.44968,18.87504 -2.34013,6.00498 -9.62597,12.05159 -26.92534,22.34567 -9.13874,5.43806 -19.91588,12.10594 -23.94922,14.81752 -4.03333,2.71157 -11.23334,6.88965 -16.00001,9.28462 -4.76666,2.39497 -10.76666,5.97431 -13.33333,7.95409 -4.37896,3.37769 -28.43678,17.86119 -43.33334,26.08792 -3.66667,2.02495 -12.66667,7.6578 -20.00001,12.51746 -7.33333,4.85966 -17.83333,11.18665 -23.33333,14.05998 -14.53927,7.59565 -14.65975,7.66394 -22.66668,12.84589 -4.03333,2.61032 -15.13333,9.44137 -24.66667,15.18012 -9.53333,5.73874 -24.06112,14.85385 -32.28397,20.25578 -8.22286,5.40194 -16.02286,10.22897 -17.33334,10.72674 -1.31048,0.49778 -7.61466,4.08747 -14.00929,7.9771 -6.39463,3.88963 -12.00829,7.07205 -12.4748,7.07205 -0.46651,0 -3.03455,1.68885 -5.70674,3.753 -4.35189,3.36163 -25.21589,15.96679 -43.68567,26.39306 -3.75491,2.11967 -12.45491,7.32985 -19.33333,11.57818 -12.90159,7.96843 -25.21178,15.36836 -32.92557,19.79229 -2.43064,1.39399 -4.98064,2.18763 -5.66666,1.76364 -0.68603,-0.42398 -1.2684,0.0145 -1.29415,0.97447 -0.0258,0.95995 -5.82766,5.04536 -12.89312,9.07869 -7.06545,4.03334 -16.49438,9.68316 -20.95317,12.55517 -4.45879,2.872 -10.91164,6.772 -14.33965,8.66666 -5.27058,2.91304 -11.77701,6.81735 -29.72208,17.83529 -1.44182,0.88525 -6.54182,4.08556 -11.33334,7.1118 -4.79151,3.02624 -17.71184,10.61202 -28.71185,16.85729 -20.71288,11.75978 -44.86754,26.17713 -58.55804,34.95196 -9.84501,6.31009 -22.734713,11.62183 -28.202035,11.62183 -7.342392,0 -26.815707,-11.68936 -34.978779,-20.99691 -4.972271,-5.66939 -4.477471,-6.51214 4.549901,-7.74948 6.898412,-0.94553 14.337444,-4.56878 32.860529,-16.00501 7.513962,-4.63916 24.461756,-14.60768 37.661754,-22.15227 13.20001,-7.54458 31.5,-18.24929 40.66667,-23.78822 9.16668,-5.53894 22.66668,-13.46195 30.00001,-17.60668 7.33333,-4.14473 21.73334,-12.65529 32.00001,-18.91235 10.26666,-6.25707 27.96667,-16.76055 39.33334,-23.34108 25.32788,-14.66312 56.65168,-33.5265 121.33335,-73.06765 6.23334,-3.81056 23.33335,-14.12171 38.00001,-22.91368 37.86324,-22.69719 45.88407,-27.55165 64.66668,-39.13828 9.16667,-5.65474 21.76667,-13.14514 28.00001,-16.64534 6.23334,-3.5002 20.03334,-11.75818 30.66667,-18.35108 10.63334,-6.5929 26.23334,-16.00488 34.66667,-20.91552 8.43335,-4.91064 29.13334,-17.22595 46.00002,-27.36735 67.48367,-40.57583 67.33334,-40.46535 67.33334,-49.480532 0,-11.245899 -11.01098,-14.681329 -21.47493,-6.700179 -5.99173,4.57007 -22.78078,15.130701 -51.19175,32.200611 -8.8,5.28722 -31.3,18.89119 -50.00001,30.23102 -18.7,11.33984 -44.80001,27.1204 -58.00001,35.06792 -27.84078,16.7625 -42.75493,25.8463 -61.33335,37.35646 -7.33333,4.54333 -18.13334,11.15983 -24.00001,14.70333 -5.86666,3.54351 -22.06666,13.32411 -36,21.73468 -40.77055,24.61029 -49.36756,29.82698 -61.68304,37.42937 -6.40767,3.95547 -28.15031,17.11745 -48.31699,29.24885 -20.16666,12.1314 -44.76667,26.94648 -54.66667,32.92239 -33.6912,20.33693 -80.00115,47.352 -112.00002,65.33559 -12.833339,7.21243 -27.533333,15.64082 -32.666674,18.72976 -5.133332,3.08894 -14.433334,8.4722 -20.666666,11.96279 -6.233341,3.4906 -13.219193,7.77784 -15.524114,9.52721 -5.525641,4.19378 -8.606422,10.5647 -7.066892,14.61398 0.64369,1.69305 1.310021,5.15212 1.480721,7.68681 0.17071,2.5347 0.68026,4.37994 1.13235,4.10053 0.81481,-0.50358 5.750081,6.94356 5.067901,7.6473 -0.19531,0.20149 2.730491,3.25257 6.501792,6.78018 8.074692,7.55292 12.850243,16.60148 11.582043,21.94525 -2.132821,8.98699 -13.876334,35.10945 -15.368954,34.18696 -0.6092,-0.3765 -0.79512,0.12986 -0.41316,1.12524 0.38197,0.99539 -2.005251,7.62656 -5.304932,14.73592 -3.29968,7.10937 -5.762521,12.92612 -5.472961,12.92612 0.28955,0 2.599041,-3.45 5.132201,-7.66667 z m 519.675505,3.77962 c -4.02938,-3.09712 -11.90402,-7.64213 -10.08807,-5.82253 1.78892,1.79252 11.77315,8.38394 12.64285,8.3466 0.37976,-0.0163 -0.76988,-1.15214 -2.55478,-2.52407 z m -33.42141,-20.77962 c 0,-0.36666 -0.3,-0.66666 -0.66667,-0.66666 -0.36666,0 -0.66666,0.3 -0.66666,0.66666 0,0.36667 0.3,0.66667 0.66666,0.66667 0.36667,0 0.66667,-0.3 0.66667,-0.66667 z m -2.66667,-1.21097 c 0,-0.29937 -3.75,-2.61811 -8.33333,-5.15276 -4.58333,-2.53465 -10.73334,-5.99812 -13.66668,-7.69659 -2.93333,-1.69847 -4.85239,-2.52973 -4.26457,-1.84724 1.26265,1.46602 23.80945,14.96832 25.26458,15.12987 0.55,0.0611 1,-0.13391 1,-0.43328 z M 243.07277,548.55248 c 0,-0.36666 -0.3,-0.66666 -0.66666,-0.66666 -0.36667,0 -0.66667,0.3 -0.66667,0.66666 0,0.36667 0.3,0.66667 0.66667,0.66667 0.36666,0 0.66666,-0.3 0.66666,-0.66667 z m -20.00001,-9.33333 c 0,-0.36667 -0.3,-0.66667 -0.66666,-0.66667 -0.36667,0 -0.66667,0.3 -0.66667,0.66667 0,0.36667 0.3,0.66667 0.66667,0.66667 0.36666,0 0.66666,-0.3 0.66666,-0.66667 z m 26.66668,-0.66667 c 0,-0.73333 -0.6,-1.33333 -1.33334,-1.33333 -0.73333,0 -1.33333,0.6 -1.33333,1.33333 0,0.73334 0.6,1.33334 1.33333,1.33334 0.73334,0 1.33334,-0.6 1.33334,-1.33334 z m -4,-0.66666 c 0,-0.36667 -0.3,-0.66667 -0.66667,-0.66667 -0.36666,0 -0.66666,0.3 -0.66666,0.66667 0,0.36666 0.3,0.66666 0.66666,0.66666 0.36667,0 0.66667,-0.3 0.66667,-0.66666 z m 213.33337,-4 c 0,-0.36667 -0.3,-0.66667 -0.66667,-0.66667 -0.36666,0 -0.66666,0.3 -0.66666,0.66667 0,0.36666 0.3,0.66666 0.66666,0.66666 0.36667,0 0.66667,-0.3 0.66667,-0.66666 z m -428.000084,-32 c 0,-0.36667 -0.3,-0.66667 -0.666661,-0.66667 -0.36667,0 -0.66667,0.3 -0.66667,0.66667 0,0.36667 0.3,0.66667 0.66667,0.66667 0.366661,0 0.666661,-0.3 0.666661,-0.66667 z m -2.666661,-1.33333 c 0,-0.36667 -0.3,-0.66667 -0.66667,-0.66667 -0.36667,0 -0.66667,0.3 -0.66667,0.66667 0,0.36666 0.3,0.66666 0.66667,0.66666 0.36667,0 0.66667,-0.3 0.66667,-0.66666 z m 2.666661,-1.33334 c 0,-0.36666 -0.3,-0.66666 -0.666661,-0.66666 -0.36667,0 -0.66667,0.3 -0.66667,0.66666 0,0.36667 0.3,0.66667 0.66667,0.66667 0.366661,0 0.666661,-0.3 0.666661,-0.66667 z m -5.777772,-6.88889 c -0.48889,-0.48888 -0.88889,-0.0889 -0.88889,0.88889 0,0.97778 0.4,1.37778 0.88889,0.88889 0.48889,-0.48889 0.48889,-1.28889 0,-1.77778 z m -2.22223,-1.11111 c 0,-0.36666 -0.300001,-0.66666 -0.666661,-0.66666 -0.36667,0 -0.66667,0.3 -0.66667,0.66666 0,0.36667 0.3,0.66667 0.66667,0.66667 0.36666,0 0.666661,-0.3 0.666661,-0.66667 z m 2.66667,-2.66666 c 0,-0.36667 -0.3,-0.66667 -0.66667,-0.66667 -0.36666,0 -0.66666,0.3 -0.66666,0.66667 0,0.36666 0.3,0.66666 0.66666,0.66666 0.36667,0 0.66667,-0.3 0.66667,-0.66666 z m 321.333406,-12 c 0,-0.36667 -0.3,-0.66667 -0.66667,-0.66667 -0.36668,0 -0.66668,0.3 -0.66668,0.66667 0,0.36666 0.3,0.66666 0.66668,0.66666 0.36667,0 0.66667,-0.3 0.66667,-0.66666 z m 2.66666,0 c 0,-0.36667 -0.3,-0.66667 -0.66666,-0.66667 -0.36667,0 -0.66667,0.3 -0.66667,0.66667 0,0.36666 0.3,0.66666 0.66667,0.66666 0.36666,0 0.66666,-0.3 0.66666,-0.66666 z m 2.66667,0 c 0,-0.36667 -0.3,-0.66667 -0.66667,-0.66667 -0.36666,0 -0.66666,0.3 -0.66666,0.66667 0,0.36666 0.3,0.66666 0.66666,0.66666 0.36667,0 0.66667,-0.3 0.66667,-0.66666 z m -9.33334,-2.66667 c 0,-0.36666 -0.3,-0.66666 -0.66667,-0.66666 -0.36667,0 -0.66667,0.3 -0.66667,0.66666 0,0.36667 0.3,0.66667 0.66667,0.66667 0.36667,0 0.66667,-0.3 0.66667,-0.66667 z m -8,-14.66666 c 0,-0.36667 -0.3,-0.66667 -0.66667,-0.66667 -0.36667,0 -0.66667,0.3 -0.66667,0.66667 0,0.36666 0.3,0.66666 0.66667,0.66666 0.36667,0 0.66667,-0.3 0.66667,-0.66666 z M 46.01436,433.55249 c 1.11188,-1.28333 3.754881,-5.33333 5.873321,-9 l 3.851721,-6.66667 -0.47455,-156.82179 C 54.717812,80.288549 53.221431,99.330348 69.296056,82.513759 c 8.570032,-8.96561 10.867313,-12.40057 7.776682,-11.62791 -0.73333,0.18333 -1.190531,0.76174 -1.01599,1.28534 0.17453,0.52361 -0.446531,0.6589 -1.380151,0.30063 -0.93362,-0.35826 -2.962551,0.5272 -4.508741,1.9677 -1.54619,1.44049 -3.077041,2.3533 -3.401881,2.02845 -0.32485,-0.32485 -4.766721,3.51974 -9.870823,8.54352 -6.908411,6.79968 -10.797752,12.126829 -15.217974,20.843761 l -5.937781,11.70961 -0.36918,155.60176 c -0.36919,155.60176 -0.36919,155.60176 2.4301,159.16048 3.261891,4.14682 5.405822,4.46666 8.214043,1.22539 z m 427.72512,-19.66666 c 0,-0.36667 -0.3,-0.66667 -0.66666,-0.66667 -0.36667,0 -0.66667,0.3 -0.66667,0.66667 0,0.36666 0.3,0.66666 0.66667,0.66666 0.36666,0 0.66666,-0.3 0.66666,-0.66666 z m 18.66667,-13.33334 c 0,-0.36666 -0.3,-0.66666 -0.66667,-0.66666 -0.36666,0 -0.66666,0.3 -0.66666,0.66666 0,0.36667 0.3,0.66667 0.66666,0.66667 0.36667,0 0.66667,-0.3 0.66667,-0.66667 z m -379.32144,-5.47225 c 1.76989,-1.90974 4.5249,-6.17199 6.12225,-9.47167 l 2.90427,-5.99941 -0.64082,-162.27922 c -0.35245,-89.25358 -0.18323,-163.516201 0.37604,-165.028061 0.55927,-1.51185 2.95352,-3.42394 5.32054,-4.24909 5.29289,-1.84511 17.20474,-1.95427 21.81896,-0.19994 6.33455,2.40839 3.45897,-0.60061 -4.2602,-4.45786 -14.56055,-7.27587 -30.94678,-6.09541 -40.47746,2.91598 -4.22247,3.99242 -5.16227,5.77893 -5.0369,9.57488 0.0848,2.56666 0.37089,77.866661 0.6358,167.333321 0.26491,89.46666 0.49903,163.93574 0.52027,165.48685 0.0481,3.51351 4.89271,9.84647 7.53239,9.84647 1.08179,0 3.41498,-1.56251 5.18486,-3.47225 z m 164.65474,-2.52775 c 0,-0.36666 -0.3,-0.66666 -0.66667,-0.66666 -0.36667,0 -0.66667,0.3 -0.66667,0.66666 0,0.36667 0.3,0.66667 0.66667,0.66667 0.36667,0 0.66667,-0.3 0.66667,-0.66667 z m 222.66671,0 c 0,-0.36666 -0.3,-0.66666 -0.66667,-0.66666 -0.36666,0 -0.66666,0.3 -0.66666,0.66666 0,0.36667 0.3,0.66667 0.66666,0.66667 0.36667,0 0.66667,-0.3 0.66667,-0.66667 z m 50.66667,-24.66666 c 0,-0.73334 -0.26459,-1.33334 -0.58797,-1.33334 -0.32339,0 -0.9588,0.6 -1.41203,1.33334 -0.45322,0.73333 -0.18863,1.33333 0.58798,1.33333 0.77661,0 1.41202,-0.6 1.41202,-1.33333 z m 6.66667,-4.66667 c 0,-0.36667 -0.3,-0.66667 -0.66667,-0.66667 -0.36666,0 -0.66666,0.3 -0.66666,0.66667 0,0.36667 0.3,0.66667 0.66666,0.66667 0.36667,0 0.66667,-0.3 0.66667,-0.66667 z m -377.38222,-5.48145 c 2.32509,-2.64814 4.82228,-6.37934 5.54931,-8.29157 0.84717,-2.22821 1.2805,-56.26176 1.20666,-150.46332 l -0.1152,-146.986551 3.61854,-2.37096 c 2.72785,-1.78736 6.34703,-2.37529 14.70323,-2.38855 6.09657,-0.01 11.08503,-0.19715 11.08547,-0.41663 4.5e-4,-0.21948 -4.64919,-2.60895 -10.33253,-5.30992 -18.21884,-8.65842 -31.99581,-6.12473 -38.23932,7.03249 -2.11569,4.4585 -2.26075,15.56765 -1.99875,153.075261 0.16585,87.04895 0.79716,150.05537 1.52899,152.59707 1.10237,3.82865 5.3571,8.33746 7.86763,8.33746 0.49419,0 2.80088,-2.16665 5.12597,-4.81478 z m 381.38222,2.81479 c 0,-0.36667 -0.3,-0.66667 -0.66667,-0.66667 -0.36666,0 -0.66666,0.3 -0.66666,0.66667 0,0.36666 0.3,0.66666 0.66666,0.66666 0.36667,0 0.66667,-0.3 0.66667,-0.66666 z m 13.33334,-9.33334 c 0,-0.36666 -0.3,-0.66666 -0.66666,-0.66666 -0.36667,0 -0.66667,0.3 -0.66667,0.66666 0,0.36667 0.3,0.66667 0.66667,0.66667 0.36666,0 0.66666,-0.3 0.66666,-0.66667 z M 383.07279,329.88583 c 0,-0.36667 -0.3,-0.66667 -0.66666,-0.66667 -0.36667,0 -0.66667,0.3 -0.66667,0.66667 0,0.36667 0.3,0.66667 0.66667,0.66667 0.36666,0 0.66666,-0.3 0.66666,-0.66667 z m 230.66673,-1.33333 c 0,-0.36667 -0.3,-0.66667 -0.66667,-0.66667 -0.36667,0 -0.66667,0.3 -0.66667,0.66667 0,0.36666 0.3,0.66666 0.66667,0.66666 0.36667,0 0.66667,-0.3 0.66667,-0.66666 z m -366.33436,-11 c 1.92388,-2.01667 4.17834,-5.46667 5.00991,-7.66667 1.60839,-4.25512 2.03038,-237.301051 0.45426,-250.859761 -0.73577,-6.32944 -0.53039,-7.03474 2.65654,-9.1229 2.20023,-1.44164 7.46363,-2.53934 14.50043,-3.02409 l 11.04648,-0.76098 -9.06302,-4.33301 c -17.28073,-8.26187 -27.59398,-7.16147 -35.157,3.75117 l -3.77999,5.45412 -0.33938,130.781061 c -0.33352,128.52563 -0.29362,130.85579 2.31374,135.11439 3.32647,5.43312 7.59139,5.6632 12.35803,0.66667 z m 67.46374,-43.63816 c 4.85161,-5.52568 5.79874,-9.84496 5.26897,-24.02851 -0.21913,-5.86666 -0.24842,-52.80283 -0.0651,-104.30258 l 0.33333,-93.635931 3.47548,-2.27722 c 2.32736,-1.52495 7.19024,-2.47219 14.72058,-2.86743 9.40264,-0.49351 10.85398,-0.85846 8.85787,-2.22736 -5.28804,-3.62643 -20.00981,-7.79778 -27.91035,-7.90827 -9.74284,-0.13624 -12.59099,1.81828 -17.31954,11.88547 l -3.13133,6.66667 -0.013,106.246531 c -0.007,61.16533 0.50534,107.60992 1.20865,109.45975 1.65455,4.35181 5.11947,7.62704 8.06879,7.62704 1.33831,0 4.26586,-2.08717 6.50566,-4.63816 z m 65.59843,-38.36184 c 7.139,-7.56315 6.88914,-4.2273 7.25807,-96.90002 0.18852,-47.354981 0.41881,-86.534561 0.51175,-87.065731 0.0929,-0.53116 2.07822,-1.95306 4.41172,-3.15976 3.24008,-1.67551 6.6021,-2.04259 14.22633,-1.5533 8.99533,0.57729 9.73022,0.44608 7.42393,-1.32546 -5.97979,-4.59329 -17.5484,-8.89582 -25.29295,-9.40682 -7.30044,-0.4817 -8.49117,-0.17502 -12.53628,3.22871 -9.50141,7.99491 -9.18109,4.56785 -9.51961,101.849051 -0.27384,78.69278 -0.0877,87.75014 1.88124,91.5462 3.34905,6.45679 7.28258,7.399 11.6358,2.78713 z m 65.53714,-39.33333 c 8.4359,-9.01646 8.18387,-6.62856 8.29782,-78.61906 0.0967,-61.123631 0.26689,-65.782181 2.48365,-68.000001 1.94939,-1.95033 4.66194,-2.38093 14.99841,-2.38093 6.94023,0 12.61932,-0.12549 12.6202,-0.27887 0.004,-0.70488 -17.67431,-8.35791 -22.2267,-9.62202 -12.5908,-3.49622 -21.44633,-0.0139 -26.77171,10.52751 -2.99389,5.92634 -3,6.07633 -3,73.722111 0,71.98348 0.10432,73.24973 6.33331,76.87778 3.28068,1.91082 3.43968,1.86209 7.26502,-2.22652 z m 71.01636,-45.66666 3.94801,-7.33334 -0.4061,-46.219652 -0.40609,-46.219649 3.12475,-1.68986 c 1.71862,-0.92942 8.19495,-1.96212 14.39185,-2.29489 l 11.26708,-0.60505 -9.07458,-4.57483 c -6.65542,-3.35524 -11.5162,-4.77952 -18.23339,-5.34267 -9.15881,-0.76784 -9.15881,-0.76784 -14.37943,4.45278 -2.87134,2.87134 -5.7365,7.30709 -6.36703,9.85722 -0.63052,2.55014 -0.84641,26.33935 -0.47974,52.864911 l 0.66667,48.2283 3.28451,3.49382 c 4.82905,5.13677 8.04326,3.96488 12.66349,-4.61709 z m 63.98285,-37.4943 c 7.12343,-8.46572 7.71727,-11.67187 7.04868,-38.056321 -0.33752,-13.31951 -0.11742,-25.01951 0.4891,-26 0.78099,-1.26253 4.61316,-1.81013 13.13328,-1.87669 6.61678,-0.0517 12.35649,-0.41995 12.75489,-0.81836 1.98044,-1.98043 -24.52552,-10.35486 -32.92115,-10.40128 -4.14603,-0.0229 -11.01054,5.31271 -13.81687,10.73956 -2.48043,4.79663 -2.86063,58.324221 -0.44745,62.995051 4.43801,8.58994 8.54846,9.61103 13.75952,3.41804 z M 156.40608,49.885849 c 0,-0.36667 -0.3,-0.66667 -0.66667,-0.66667 -0.36666,0 -0.66666,0.3 -0.66666,0.66667 0,0.36666 0.3,0.66666 0.66666,0.66666 0.36667,0 0.66667,-0.3 0.66667,-0.66666 z m 332.00007,-1.33334 c 0,-0.36666 -0.3,-0.66666 -0.66667,-0.66666 -0.36666,0 -0.66666,0.3 -0.66666,0.66666 0,0.36667 0.3,0.66667 0.66666,0.66667 0.36667,0 0.66667,-0.3 0.66667,-0.66667 z M 710.14483,596.6252 c -6.9773,-2.18109 -18.9298,-8.7223 -39.46009,-21.59517 -8.75678,-5.49068 -22.30179,-13.44222 -30.1,-17.67008 -7.79821,-4.22787 -21.07856,-11.76808 -29.51189,-16.75603 -8.43334,-4.98795 -19.53334,-11.47556 -24.66668,-14.41692 -5.13333,-2.94135 -13.83334,-8.20436 -19.33334,-11.69557 -5.5,-3.49121 -14.97522,-9.00797 -21.05605,-12.25947 -21.60182,-11.55079 -24.8784,-14.96865 -21.80846,-22.74884 0.8784,-2.22614 3.44348,-2.4044 34.90629,-2.42574 25.32258,-0.0172 36.42467,0.49253 43.65709,2.00435 10.46538,2.18761 32.96112,11.77139 42.0295,17.90567 3.08274,2.08531 9.20499,5.80924 13.60499,8.27539 4.4,2.46615 9.974,6.61317 12.38666,9.21558 l 4.38666,4.73166 -2.08833,-5.91894 c -2.33598,-6.62088 -6.73061,-11.6889 -7.81507,-9.01258 -0.48788,1.20404 -0.68677,1.17334 -0.76466,-0.11805 -0.0579,-0.95994 -0.60526,-1.43634 -1.21637,-1.05865 -0.61111,0.37769 -1.11111,-0.1869 -1.11111,-1.25464 0,-1.06774 0.49413,-1.94135 1.09806,-1.94135 1.92969,0 -3.42765,-5.53166 -6.54251,-6.75539 -1.65,-0.64824 -3,-2.18645 -3,-3.41826 0,-2.00512 0.30325,-1.97367 2.89586,0.30033 1.59273,1.39699 2.4978,1.85549 2.01127,1.01888 -0.55058,-0.94676 2.50946,-3.2123 8.10414,-6 8.98873,-4.47889 8.98873,-4.47889 25.12194,-28.47889 8.8733,-13.2 15.932,-24.24129 15.686,-24.53619 -0.8223,-0.98608 -8.4225,8.42106 -16.0529,19.86952 -8.12346,12.18821 -12.80415,17.33334 -15.76875,17.33334 -1.02578,0 -2.41949,0.99073 -3.09715,2.20163 -0.93684,1.67405 -2.39052,2.01365 -6.06625,1.41716 -3.00866,-0.48824 -4.83416,-0.25098 -4.83416,0.62829 0,0.9246 -0.65006,0.87326 -1.88129,-0.14857 -1.3744,-1.14064 -2.12925,-1.16014 -2.80154,-0.0724 -0.50613,0.81894 -1.70122,1.18928 -2.65577,0.82299 -0.95454,-0.36629 -2.84385,0.17372 -4.19846,1.20003 -2.96763,2.24838 -4.96527,2.50896 -3.71407,0.48447 0.63695,-1.0306 0.066,-1.01666 -1.92131,0.0469 -1.97544,1.05723 -3.59878,1.10052 -5.38667,0.14368 -1.5711,-0.84083 -2.72933,-0.88173 -3,-0.10595 -0.27741,0.79508 -2.41852,0.79177 -5.77423,-0.009 -2.93333,-0.69992 -7.43333,-1.6193 -10,-2.04308 -2.56666,-0.42377 -7.06666,-1.33704 -10.00001,-2.02948 -2.93333,-0.69244 -19.53497,-1.93312 -36.89253,-2.75707 -30.98505,-1.47083 -31.66293,-1.44677 -37.26058,1.32273 -3.13577,1.55145 -5.89895,2.62326 -6.14041,2.38181 -0.93322,-0.93323 19.51334,-14.09251 30.29352,-19.49672 6.23333,-3.12484 20.33334,-11.69252 31.33334,-19.03929 11,-7.34677 23.62212,-15.06234 28.04915,-17.1457 12.80081,-6.02407 31.37773,-8.17662 70.79507,-8.20318 30.9686,-0.0209 33.90191,0.18035 38.66661,2.6524 10.7008,5.55183 10.225,1.26447 10.0587,90.63758 -0.1447,77.77364 -0.2014,79.40629 -2.9097,83.78835 -7.1555,11.57795 -14.25551,14.47919 -26.25451,10.72833 z M 640.40618,473.88582 c 0,-0.36666 -0.3,-0.66666 -0.66667,-0.66666 -0.36666,0 -0.66666,0.3 -0.66666,0.66666 0,0.36667 0.3,0.66667 0.66666,0.66667 0.36667,0 0.66667,-0.3 0.66667,-0.66667 z m 13.33334,-3.74265 c 0,-0.99137 -0.50144,-0.9559 -1.56827,0.11093 -1.20215,1.20214 -2.05817,1.18658 -3.66667,-0.0667 -1.83437,-1.42923 -1.87643,-1.35132 -0.33425,0.61914 1.82909,2.33704 5.56919,1.89152 5.56919,-0.6634 z m -2.66666,-4.25735 c 0,-0.36666 -0.3,-0.66666 -0.66667,-0.66666 -0.36667,0 -0.66667,0.3 -0.66667,0.66666 0,0.36667 0.3,0.66667 0.66667,0.66667 0.36667,0 0.66667,-0.3 0.66667,-0.66667 z m 28,0 c 0,-0.36666 -0.3,-0.66666 -0.66667,-0.66666 -0.36667,0 -0.66667,0.3 -0.66667,0.66666 0,0.36667 0.3,0.66667 0.66667,0.66667 0.36667,0 0.66667,-0.3 0.66667,-0.66667 z m -32.00001,-1.33333 c 0,-0.36667 -0.3,-0.66667 -0.66667,-0.66667 -0.36667,0 -0.66667,0.3 -0.66667,0.66667 0,0.36667 0.3,0.66667 0.66667,0.66667 0.36667,0 0.66667,-0.3 0.66667,-0.66667 z m 47.99998,-22.66667 c 0,-0.36666 -0.3,-0.66666 -0.6666,-0.66666 -0.3667,0 -0.6667,0.3 -0.6667,0.66666 0,0.36667 0.3,0.66667 0.6667,0.66667 0.3666,0 0.6666,-0.3 0.6666,-0.66667 z m 15.1754,-13.40258 c 0.4554,-1.18657 0.2318,-1.72176 -0.524,-1.25464 -0.7249,0.44803 -1.318,1.37919 -1.318,2.06925 0,1.91791 0.9557,1.49528 1.842,-0.81461 z m 2.158,-3.93075 c 0,-0.36667 -0.3,-0.66667 -0.6667,-0.66667 -0.3667,0 -0.6667,0.3 -0.6667,0.66667 0,0.36667 0.3,0.66667 0.6667,0.66667 0.3667,0 0.6667,-0.3 0.6667,-0.66667 z m 4,-6.66667 c 0,-0.36666 -0.3,-0.66666 -0.6667,-0.66666 -0.3667,0 -0.6667,0.3 -0.6667,0.66666 0,0.36667 0.3,0.66667 0.6667,0.66667 0.3667,0 0.6667,-0.3 0.6667,-0.66667 z m 4,-6.66666 c 0,-0.36667 -0.3,-0.66667 -0.6667,-0.66667 -0.3667,0 -0.6667,0.3 -0.6667,0.66667 0,0.36667 0.3,0.66667 0.6667,0.66667 0.3667,0 0.6667,-0.3 0.6667,-0.66667 z m -52.00004,95.99999 c 0,-0.36666 0.3,-0.66666 0.66667,-0.66666 0.36666,0 0.66666,0.3 0.66666,0.66666 0,0.36667 -0.3,0.66667 -0.66666,0.66667 -0.36667,0 -0.66667,-0.3 -0.66667,-0.66667 z m -9.33333,-5.33333 c 0,-0.36667 0.3,-0.66667 0.66666,-0.66667 0.36667,0 0.66667,0.3 0.66667,0.66667 0,0.36667 -0.3,0.66667 -0.66667,0.66667 -0.36666,0 -0.66666,-0.3 -0.66666,-0.66667 z m -0.58095,-5.60916 c -0.72358,-1.90027 -0.57042,-2.05342 0.7464,-0.7464 0.91122,0.90445 1.32089,1.98033 0.91038,2.39084 -0.41052,0.41052 -1.15607,-0.32948 -1.65678,-1.64444 z m -3.41905,-1.05751 c 0,-0.36666 0.3,-0.66666 0.66666,-0.66666 0.36667,0 0.66667,0.3 0.66667,0.66666 0,0.36667 -0.3,0.66667 -0.66667,0.66667 -0.36666,0 -0.66666,-0.3 -0.66666,-0.66667 z m -6.66668,-4 c 0,-0.36666 0.30001,-0.66666 0.66668,-0.66666 0.36666,0 0.66666,0.3 0.66666,0.66666 0,0.36667 -0.3,0.66667 -0.66666,0.66667 -0.36667,0 -0.66668,-0.3 -0.66668,-0.66667 z m 1.77779,-4.22222 c 0.48889,-0.48889 1.28889,-0.48889 1.77778,0 0.48889,0.48889 0.0889,0.88889 -0.88889,0.88889 -0.97778,0 -1.37778,-0.4 -0.88889,-0.88889 z m 4.88889,-10.44444 c 0,-0.36667 0.3,-0.66667 0.66666,-0.66667 0.36667,0 0.66667,0.3 0.66667,0.66667 0,0.36666 -0.3,0.66666 -0.66667,0.66666 -0.36666,0 -0.66666,-0.3 -0.66666,-0.66666 z m 2.77193,-1.44445 c 0.064,-1.55325 0.37992,-1.8692 0.80555,-0.80555 0.38516,0.9625 0.33779,2.1125 -0.10526,2.55555 -0.44306,0.44306 -0.75819,-0.34444 -0.70029,-1.75 z m 5.22807,0.11111 c 0,-0.36666 0.3,-0.66666 0.66666,-0.66666 0.36667,0 0.66667,0.3 0.66667,0.66666 0,0.36667 -0.3,0.66667 -0.66667,0.66667 -0.36666,0 -0.66666,-0.3 -0.66666,-0.66667 z m 10.66666,-3.99999 c 0,-0.36667 0.3,-0.66667 0.66667,-0.66667 0.36667,0 0.66667,0.3 0.66667,0.66667 0,0.36666 -0.3,0.66666 -0.66667,0.66666 -0.36667,0 -0.66667,-0.3 -0.66667,-0.66666 z"
       id="path1"
       sodipodi:nodetypes="ssssssssssssssssssssssssssssssssssssssssssssssssssssssssscssscssssscssssssssssscsssssscssssscsssscccssssssssssssssssssssssssssssssssssssssssssssssssssssssssssssssssssssssssssssssssssssssscssssssssssssscssssssssssssssscscssssssscssscsssscssssssssssssscccsscsssscccsssscsssssscsssssssssssssssssssssssssssssssssssssssssssssssssssssssssssssssssssssssssssssssssssssssscssssssssssssssssssssssssssssssssssssssssssssssssssssssssssssssssssssssssssssssssssssssssssssssssssssssssssssssssssssssssssssssssssssssssssssssssssssssssssssssssssssssscssssssssscssssssssssssssscsssssscssssssssssssssssssssssssssscscsssssssssssssssssssssssssssssssscsscsssssscsssssccsssssssssssssssssssssssssscccsscssssscsssssssssssssssssssssssssssssssssscsssssssssssscsssssssssssssssssssssssssssssssssssssssssssssssssssssssssssssssssssssssssssssssssssssssssssssssssssssssssssssssssssssssssssss" />
  </g>
</svg>
